<?xml version="1.0" standalone="no"?>
<!DOCTYPE svg PUBLIC "-//W3C//DTD SVG 20010904//EN"
 "http://www.w3.org/TR/2001/REC-SVG-20010904/DTD/svg10.dtd">
<svg version="1.0" xmlns="http://www.w3.org/2000/svg"
 width="228.000000pt" height="228.000000pt" viewBox="0 0 228.000000 228.000000"
 preserveAspectRatio="xMidYMid meet">
<metadata>
Created by potrace 1.11, written by Peter Selinger 2001-2013
</metadata>
<g transform="translate(0.000000,228.000000) scale(0.100000,-0.100000)"
fill="#000000" stroke="none">
<path d="M917 2184 c-1 -1 -63 -4 -137 -8 -149 -7 -167 -9 -290 -32 -47 -9
-97 -18 -112 -21 -19 -4 -27 -12 -30 -31 -5 -44 -3 -1760 2 -1766 9 -8 395
-92 530 -115 411 -69 728 0 946 206 145 136 203 333 130 443 -42 64 -222 216
-349 295 -14 9 -9 18 33 63 110 120 162 231 164 353 1 68 -2 80 -28 120 -26
40 -249 268 -338 346 -134 118 -176 134 -366 142 -85 3 -154 5 -155 5z m428
-288 c81 -35 119 -95 118 -187 -2 -132 -90 -280 -213 -359 -99 -64 -285 -115
-428 -119 l-82 -2 2 313 3 313 95 22 c151 36 207 42 340 39 90 -2 136 -8 165
-20z m-517 -840 c171 -45 422 -40 571 11 l44 15 45 -49 c66 -71 85 -121 86
-223 0 -108 -23 -160 -109 -245 -92 -91 -198 -141 -360 -169 -86 -15 -274 -21
-330 -10 l-35 6 0 345 c0 306 2 344 15 339 9 -3 41 -12 73 -20z"/>
</g>
</svg>
